<svg xmlns="http://www.w3.org/2000/svg" width="78" height="78" viewBox="0 0 78 78" fill="none">
  <mask id="mask0_1_365" style="mask-type:luminance" maskUnits="userSpaceOnUse" x="0" y="0" width="78" height="78">
    <path d="M74.1654 77.27H3.10716C1.39822 77.27 0 75.8718 0 74.1628V3.10715C0 1.39821 1.39822 -1.52588e-05 3.10716 -1.52588e-05H74.1628C75.8718 -1.52588e-05 77.27 1.39821 77.27 3.10715V74.1628C77.2726 75.8718 75.8744 77.27 74.1654 77.27Z" fill="white"/>
  </mask>
  <g mask="url(#mask0_1_365)">
    <path d="M38.912 65.6492C73.0913 65.6492 100.799 49.664 100.799 29.9453C100.799 10.2265 73.0913 -5.75865 38.912 -5.75865C4.73282 -5.75865 -22.9749 10.2265 -22.9749 29.9453C-22.9749 49.664 4.73282 65.6492 38.912 65.6492Z" fill="white"/>
    <path d="M38.9121 69.5331C21.7113 69.5331 5.479 65.6337 -6.78913 58.5571C-19.7305 51.0895 -26.8588 40.9291 -26.8588 29.9453C-26.8588 18.9614 -19.7305 8.80101 -6.78913 1.33346C5.48158 -5.74311 21.7113 -9.6426 38.9121 -9.6426C56.1128 -9.6426 72.3452 -5.74311 84.6133 1.33346C97.5546 8.80101 104.683 18.9614 104.683 29.9453C104.683 40.9291 97.5546 51.0895 84.6133 58.5571C72.3452 65.6362 56.1128 69.5331 38.9121 69.5331ZM38.9121 -1.87469C23.0526 -1.87469 8.20035 1.65453 -2.90776 8.06306C-13.3427 14.0832 -19.0909 21.8563 -19.0909 29.9453C-19.0909 38.0368 -13.3427 45.8073 -2.90776 51.8275C8.20035 58.236 23.0526 61.7652 38.9121 61.7652C54.7716 61.7652 69.6238 58.236 80.7319 51.8275C91.1668 45.8073 96.9151 38.0343 96.9151 29.9453C96.9151 21.8537 91.1668 14.0832 80.7319 8.06306C69.6238 1.65453 54.7716 -1.87469 38.9121 -1.87469Z" fill="#00B8DB"/>
  </g>
  <mask id="mask1_1_365" style="mask-type:luminance" maskUnits="userSpaceOnUse" x="0" y="0" width="78" height="78">
    <path d="M74.1654 77.27H3.10716C1.39822 77.27 0 75.8718 0 74.1628V3.10715C0 1.39821 1.39822 -1.52588e-05 3.10716 -1.52588e-05H74.1628C75.8718 -1.52588e-05 77.27 1.39821 77.27 3.10715V74.1628C77.2726 75.8718 75.8744 77.27 74.1654 77.27Z" fill="white"/>
  </mask>
  <g mask="url(#mask1_1_365)">
    <path d="M38.9121 65.6492C66.7462 65.6492 89.3103 52.6317 89.3103 36.5739C89.3103 20.5161 66.7462 7.4986 38.9121 7.4986C11.0779 7.4986 -11.4861 20.5161 -11.4861 36.5739C-11.4861 52.6317 11.0779 65.6492 38.9121 65.6492Z" fill="white"/>
    <path d="M38.9121 69.5331C24.7796 69.5331 11.4344 66.325 1.33348 60.4965C-9.43802 54.2821 -15.3701 45.784 -15.3701 36.5713C-15.3701 27.3586 -9.43802 18.8605 1.33348 12.6461C11.4344 6.8202 24.7796 3.60946 38.9121 3.60946C53.0445 3.60946 66.3898 6.81761 76.4906 12.6461C87.2621 18.8605 93.1942 27.3586 93.1942 36.5713C93.1942 45.784 87.2621 54.2821 76.4906 60.4965C66.3898 66.325 53.0445 69.5331 38.9121 69.5331ZM38.9121 11.38C13.6974 11.38 -7.6022 22.9179 -7.6022 36.5713C-7.6022 50.2247 13.7 61.7626 38.9121 61.7626C64.1241 61.7626 85.4263 50.2247 85.4263 36.5713C85.4263 22.9179 64.1267 11.38 38.9121 11.38Z" fill="#00B8DB"/>
  </g>
  <mask id="mask2_1_365" style="mask-type:luminance" maskUnits="userSpaceOnUse" x="0" y="0" width="78" height="78">
    <path d="M74.1654 77.27H3.10716C1.39822 77.27 0 75.8718 0 74.1628V3.10715C0 1.39821 1.39822 -1.52588e-05 3.10716 -1.52588e-05H74.1628C75.8718 -1.52588e-05 77.27 1.39821 77.27 3.10715V74.1628C77.2726 75.8718 75.8744 77.27 74.1654 77.27Z" fill="white"/>
  </mask>
  <g mask="url(#mask2_1_365)">
    <path d="M38.9121 65.6492C60.4026 65.6492 77.8241 55.5983 77.8241 43.1999C77.8241 30.8016 60.4026 20.7507 38.9121 20.7507C17.4215 20.7507 0 30.8016 0 43.1999C0 55.5983 17.4215 65.6492 38.9121 65.6492Z" fill="white"/>
    <path d="M38.912 69.5331C27.8479 69.5331 17.3872 67.0138 9.45612 62.4385C0.854453 57.4748 -3.88397 50.6442 -3.88397 43.1999C-3.88397 35.7557 0.854453 28.9251 9.45612 23.9614C17.3872 19.3861 27.8479 16.8667 38.912 16.8667C49.9761 16.8667 60.4369 19.3861 68.368 23.9614C76.9696 28.9251 81.7081 35.7557 81.7081 43.1999C81.7081 50.6442 76.9696 57.4748 68.368 62.4385C60.4369 67.0138 49.9761 69.5331 38.912 69.5331ZM38.912 24.6372C19.9247 24.6372 3.88394 33.1379 3.88394 43.2025C3.88394 53.2671 19.9247 61.7678 38.912 61.7678C57.8994 61.7678 73.9402 53.2671 73.9402 43.2025C73.9402 33.1379 57.8994 24.6372 38.912 24.6372Z" fill="#00B8DB"/>
  </g>
  <mask id="mask3_1_365" style="mask-type:luminance" maskUnits="userSpaceOnUse" x="0" y="0" width="78" height="78">
    <path d="M74.1654 77.27H3.10716C1.39822 77.27 0 75.8718 0 74.1628V3.10715C0 1.39821 1.39822 -1.52588e-05 3.10716 -1.52588e-05H74.1628C75.8718 -1.52588e-05 77.27 1.39821 77.27 3.10715V74.1628C77.2726 75.8718 75.8744 77.27 74.1654 77.27Z" fill="white"/>
  </mask>
  <g mask="url(#mask3_1_365)">
    <path d="M38.9121 49.5774C44.3333 49.5774 48.7281 45.1826 48.7281 39.7613C48.7281 34.3401 44.3333 29.9453 38.9121 29.9453C33.4908 29.9453 29.096 34.3401 29.096 39.7613C29.096 45.1826 33.4908 49.5774 38.9121 49.5774Z" fill="#FEBA00"/>
  </g>
  <mask id="mask4_1_365" style="mask-type:luminance" maskUnits="userSpaceOnUse" x="0" y="0" width="78" height="78">
    <path d="M74.1654 77.27H3.10716C1.39822 77.27 0 75.8718 0 74.1628V3.10715C0 1.39821 1.39822 -1.52588e-05 3.10716 -1.52588e-05H74.1628C75.8718 -1.52588e-05 77.27 1.39821 77.27 3.10715V74.1628C77.2726 75.8718 75.8744 77.27 74.1654 77.27Z" fill="white"/>
  </mask>
  <g mask="url(#mask4_1_365)">
    <path d="M-1.14447 54.1242L11.0563 40.0332C15.3882 35.0281 23.0474 34.7277 27.7599 39.3755L30.7946 42.3687C35.88 47.3868 44.1192 47.1667 48.9327 41.8871L53.4821 36.895C57.2262 32.7883 63.7487 32.9799 67.2442 37.3041L77.3891 49.857V89.6935H-1.14447V54.1242Z" fill="white"/>
  </g>
  <mask id="mask5_1_365" style="mask-type:luminance" maskUnits="userSpaceOnUse" x="0" y="0" width="78" height="78">
    <path d="M74.1654 77.27H3.10716C1.39822 77.27 0 75.8718 0 74.1628V3.10715C0 1.39821 1.39822 -1.52588e-05 3.10716 -1.52588e-05H74.1628C75.8718 -1.52588e-05 77.27 1.39821 77.27 3.10715V74.1628C77.2726 75.8718 75.8744 77.27 74.1654 77.27Z" fill="white"/>
  </mask>
  <g mask="url(#mask5_1_365)">
    <path d="M-1.14447 63.8004L11.0563 49.7094C15.3882 44.7043 23.0474 44.4039 27.7599 49.0517L30.7946 52.045C35.88 57.0631 44.1192 56.843 48.9327 51.5634L53.4821 46.5712C57.2262 42.4646 63.7487 42.6562 67.2442 46.9803L77.3891 59.5333V99.3671H-1.14447V63.8004Z" fill="#162556"/>
  </g>
  <mask id="mask6_1_365" style="mask-type:luminance" maskUnits="userSpaceOnUse" x="0" y="0" width="78" height="78">
    <path d="M74.1654 77.27H3.10716C1.39822 77.27 0 75.8718 0 74.1628V3.10715C0 1.39821 1.39822 -1.52588e-05 3.10716 -1.52588e-05H74.1628C75.8718 -1.52588e-05 77.27 1.39821 77.27 3.10715V74.1628C77.2726 75.8718 75.8744 77.27 74.1654 77.27Z" fill="white"/>
  </mask>
  <g mask="url(#mask6_1_365)">
    <path d="M-1.14447 74.0437L11.0563 59.9527C15.3882 54.9476 23.0474 54.6472 27.7599 59.295L30.7946 62.2883C35.88 67.3063 44.1192 67.0863 48.9327 61.8067L53.4821 56.8145C57.2262 52.7078 63.7487 52.8995 67.2442 57.2236L77.3891 69.7765V109.613H-1.14447V74.0437Z" fill="white"/>
  </g>
  <mask id="mask7_1_365" style="mask-type:luminance" maskUnits="userSpaceOnUse" x="0" y="0" width="78" height="78">
    <path d="M74.1654 77.27H3.10716C1.39822 77.27 0 75.8718 0 74.1628V3.10715C0 1.39821 1.39822 -1.52588e-05 3.10716 -1.52588e-05H74.1628C75.8718 -1.52588e-05 77.27 1.39821 77.27 3.10715V74.1628C77.2726 75.8718 75.8744 77.27 74.1654 77.27Z" fill="white"/>
  </mask>
  <g mask="url(#mask7_1_365)">
    <path d="M-1.14447 84.0022L11.0563 69.9112C15.3882 64.9061 23.0474 64.6057 27.7599 69.2535L30.7946 72.2467C35.88 77.2648 44.1192 77.0447 48.9327 71.7651L53.4821 66.7729C57.2262 62.6663 63.7487 62.8579 67.2442 67.1821L77.3891 79.735V119.571H-1.14447V84.0022Z" fill="#162556"/>
  </g>
</svg>