<svg xmlns="http://www.w3.org/2000/svg" width="40" height="40" viewBox="0 0 40 40" fill="none">
  <mask id="mask0_1_833" style="mask-type:luminance" maskUnits="userSpaceOnUse" x="0" y="0" width="40" height="40">
    <path d="M38.3929 40H1.60847C0.723812 40 0 39.2762 0 38.3915V1.60846C0 0.723797 0.723812 -1.52588e-05 1.60847 -1.52588e-05H38.3915C39.2762 -1.52588e-05 40 0.723797 40 1.60846V38.3915C40.0013 39.2762 39.2775 40 38.3929 40Z" fill="white"/>
  </mask>
  <g mask="url(#mask0_1_833)">
    <path d="M20.1437 33.9843C37.8371 33.9843 52.1804 25.7093 52.1804 15.5016C52.1804 5.29392 37.8371 -2.98105 20.1437 -2.98105C2.45026 -2.98105 -11.8931 5.29392 -11.8931 15.5016C-11.8931 25.7093 2.45026 33.9843 20.1437 33.9843Z" fill="white"/>
    <path d="M20.1435 35.9949C11.2393 35.9949 2.83636 33.9763 -3.51442 30.313C-10.2137 26.4473 -13.9038 21.1876 -13.9038 15.5016C-13.9038 9.81568 -10.2137 4.55598 -3.51442 0.690285C2.8377 -2.97301 11.2393 -4.99164 20.1435 -4.99164C29.0477 -4.99164 37.4507 -2.97301 43.8014 0.690285C50.5007 4.55598 54.1908 9.81568 54.1908 15.5016C54.1908 21.1876 50.5007 26.4473 43.8014 30.313C37.4507 33.9776 29.0477 35.9949 20.1435 35.9949ZM20.1435 -0.970461C11.9336 -0.970461 4.24511 0.856494 -1.50518 4.17397C-6.90696 7.29038 -9.88263 11.3142 -9.88263 15.5016C-9.88263 19.6904 -6.90696 23.7129 -1.50518 26.8293C4.24511 30.1468 11.9336 31.9737 20.1435 31.9737C28.3534 31.9737 36.0419 30.1468 41.7922 26.8293C47.194 23.7129 50.1696 19.689 50.1696 15.5016C50.1696 11.3129 47.194 7.29038 41.7922 4.17397C36.0419 0.856494 28.3534 -0.970461 20.1435 -0.970461Z" fill="#00B8DB"/>
  </g>
  <mask id="mask1_1_833" style="mask-type:luminance" maskUnits="userSpaceOnUse" x="0" y="0" width="40" height="40">
    <path d="M38.3929 40H1.60847C0.723812 40 0 39.2762 0 38.3915V1.60846C0 0.723797 0.723812 -1.52588e-05 1.60847 -1.52588e-05H38.3915C39.2762 -1.52588e-05 40 0.723797 40 1.60846V38.3915C40.0013 39.2762 39.2775 40 38.3929 40Z" fill="white"/>
  </mask>
  <g mask="url(#mask1_1_833)">
    <path d="M20.1436 33.9843C34.5524 33.9843 46.233 27.2456 46.233 18.933C46.233 10.6205 34.5524 3.88177 20.1436 3.88177C5.73482 3.88177 -5.9458 10.6205 -5.9458 18.933C-5.9458 27.2456 5.73482 33.9843 20.1436 33.9843Z" fill="white"/>
    <path d="M20.1434 35.9949C12.8276 35.9949 5.9192 34.3341 0.69033 31.3169C-4.8857 28.1 -7.95654 23.7008 -7.95654 18.9317C-7.95654 14.1626 -4.8857 9.7634 0.69033 6.54646C5.9192 3.53058 12.8276 1.86849 20.1434 1.86849C27.4593 1.86849 34.3677 3.52924 39.5966 6.54646C45.1726 9.7634 48.2434 14.1626 48.2434 18.9317C48.2434 23.7008 45.1726 28.1 39.5966 31.3169C34.3677 34.3341 27.4593 35.9949 20.1434 35.9949ZM20.1434 5.89101C7.09071 5.89101 -3.93536 11.8638 -3.93536 18.9317C-3.93536 25.9996 7.09204 31.9724 20.1434 31.9724C33.1949 31.9724 44.2223 25.9996 44.2223 18.9317C44.2223 11.8638 33.1962 5.89101 20.1434 5.89101Z" fill="#00B8DB"/>
  </g>
  <mask id="mask2_1_833" style="mask-type:luminance" maskUnits="userSpaceOnUse" x="0" y="0" width="40" height="40">
    <path d="M38.3929 40H1.60847C0.723812 40 0 39.2762 0 38.3915V1.60846C0 0.723797 0.723812 -1.52588e-05 1.60847 -1.52588e-05H38.3915C39.2762 -1.52588e-05 40 0.723797 40 1.60846V38.3915C40.0013 39.2762 39.2775 40 38.3929 40Z" fill="white"/>
  </mask>
  <g mask="url(#mask2_1_833)">
    <path d="M20.1434 33.9843C31.2683 33.9843 40.2868 28.7813 40.2868 22.3631C40.2868 15.9449 31.2683 10.7419 20.1434 10.7419C9.01852 10.7419 0 15.9449 0 22.3631C0 28.7813 9.01852 33.9843 20.1434 33.9843Z" fill="white"/>
    <path d="M20.1433 35.9949C14.4158 35.9949 9.00058 34.6907 4.89496 32.3222C0.442176 29.7527 -2.01074 26.2167 -2.01074 22.3631C-2.01074 18.5095 0.442176 14.9735 4.89496 12.404C9.00058 10.0355 14.4158 8.7313 20.1433 8.7313C25.8708 8.7313 31.2859 10.0355 35.3916 12.404C39.8444 14.9735 42.2973 18.5095 42.2973 22.3631C42.2973 26.2167 39.8444 29.7527 35.3916 32.3222C31.2859 34.6907 25.8708 35.9949 20.1433 35.9949ZM20.1433 12.7538C10.3142 12.7538 2.01044 17.1543 2.01044 22.3644C2.01044 27.5745 10.3142 31.9751 20.1433 31.9751C29.9724 31.9751 38.2761 27.5745 38.2761 22.3644C38.2761 17.1543 29.9724 12.7538 20.1433 12.7538Z" fill="#00B8DB"/>
  </g>
  <mask id="mask3_1_833" style="mask-type:luminance" maskUnits="userSpaceOnUse" x="0" y="0" width="40" height="40">
    <path d="M38.3929 40H1.60847C0.723812 40 0 39.2762 0 38.3915V1.60846C0 0.723797 0.723812 -1.52588e-05 1.60847 -1.52588e-05H38.3915C39.2762 -1.52588e-05 40 0.723797 40 1.60846V38.3915C40.0013 39.2762 39.2775 40 38.3929 40Z" fill="white"/>
  </mask>
  <g mask="url(#mask3_1_833)">
    <path d="M20.1434 25.6645C22.9498 25.6645 25.2249 23.3894 25.2249 20.5831C25.2249 17.7767 22.9498 15.5016 20.1434 15.5016C17.337 15.5016 15.062 17.7767 15.062 20.5831C15.062 23.3894 17.337 25.6645 20.1434 25.6645Z" fill="#FEBA00"/>
  </g>
  <mask id="mask4_1_833" style="mask-type:luminance" maskUnits="userSpaceOnUse" x="0" y="0" width="40" height="40">
    <path d="M38.3929 40H1.60847C0.723812 40 0 39.2762 0 38.3915V1.60846C0 0.723797 0.723812 -1.52588e-05 1.60847 -1.52588e-05H38.3915C39.2762 -1.52588e-05 40 0.723797 40 1.60846V38.3915C40.0013 39.2762 39.2775 40 38.3929 40Z" fill="white"/>
  </mask>
  <g mask="url(#mask4_1_833)">
    <path d="M-0.592285 28.0182L5.72364 20.7238C7.96612 18.1328 11.931 17.9773 14.3705 20.3833L15.9415 21.9328C18.574 24.5305 22.8391 24.4166 25.3309 21.6835L27.686 19.0992C29.6242 16.9734 33.0006 17.0726 34.8102 19.311L40.0618 25.8092V46.4312H-0.592285V28.0182Z" fill="white"/>
  </g>
  <mask id="mask5_1_833" style="mask-type:luminance" maskUnits="userSpaceOnUse" x="0" y="0" width="40" height="40">
    <path d="M38.3929 40H1.60847C0.723812 40 0 39.2762 0 38.3915V1.60846C0 0.723797 0.723812 -1.52588e-05 1.60847 -1.52588e-05H38.3915C39.2762 -1.52588e-05 40 0.723797 40 1.60846V38.3915C40.0013 39.2762 39.2775 40 38.3929 40Z" fill="white"/>
  </mask>
  <g mask="url(#mask5_1_833)">
    <path d="M-0.592285 33.0273L5.72364 25.7328C7.96612 23.1419 11.931 22.9864 14.3705 25.3924L15.9415 26.9419C18.574 29.5396 22.8391 29.4256 25.3309 26.6926L27.686 24.1083C29.6242 21.9824 33.0006 22.0816 34.8102 24.3201L40.0618 30.8183V51.4389H-0.592285V33.0273Z" fill="#162556"/>
  </g>
  <mask id="mask6_1_833" style="mask-type:luminance" maskUnits="userSpaceOnUse" x="0" y="0" width="40" height="40">
    <path d="M38.3929 40H1.60847C0.723812 40 0 39.2762 0 38.3915V1.60846C0 0.723797 0.723812 -1.52588e-05 1.60847 -1.52588e-05H38.3915C39.2762 -1.52588e-05 40 0.723797 40 1.60846V38.3915C40.0013 39.2762 39.2775 40 38.3929 40Z" fill="white"/>
  </mask>
  <g mask="url(#mask6_1_833)">
    <path d="M-0.592285 38.3299L5.72364 31.0354C7.96612 28.4445 11.931 28.289 14.3705 30.695L15.9415 32.2445C18.574 34.8421 22.8391 34.7282 25.3309 31.9952L27.686 29.4109C29.6242 27.285 33.0006 27.3842 34.8102 29.6227L40.0618 36.1209V56.7428H-0.592285V38.3299Z" fill="white"/>
  </g>
  <mask id="mask7_1_833" style="mask-type:luminance" maskUnits="userSpaceOnUse" x="0" y="0" width="40" height="40">
    <path d="M38.3929 40H1.60847C0.723812 40 0 39.2762 0 38.3915V1.60846C0 0.723797 0.723812 -1.52588e-05 1.60847 -1.52588e-05H38.3915C39.2762 -1.52588e-05 40 0.723797 40 1.60846V38.3915C40.0013 39.2762 39.2775 40 38.3929 40Z" fill="white"/>
  </mask>
  <g mask="url(#mask7_1_833)">
    <path d="M-0.592285 43.485L5.72364 36.1906C7.96612 33.5996 11.931 33.4441 14.3705 35.8501L15.9415 37.3996C18.574 39.9973 22.8391 39.8834 25.3309 37.1503L27.686 34.566C29.6242 32.4402 33.0006 32.5394 34.8102 34.7778L40.0618 41.276V61.898H-0.592285V43.485Z" fill="#162556"/>
  </g>
</svg>