<svg xmlns="http://www.w3.org/2000/svg" width="111" height="110" viewBox="0 0 111 110" fill="none">
  <g clip-path="url(#clip0_1_425)">
    <mask id="mask0_1_425" style="mask-type:luminance" maskUnits="userSpaceOnUse" x="0" y="0" width="111" height="110">
      <path d="M106.13 109.871H4.82986C2.39362 109.871 0.40033 107.885 0.40033 105.457V4.49934C0.40033 2.07125 2.39362 0.0846252 4.82986 0.0846252H106.126C108.562 0.0846252 110.555 2.07125 110.555 4.49934V105.457C110.559 107.885 108.566 109.871 106.13 109.871Z" fill="white"/>
    </mask>
    <g mask="url(#mask0_1_425)">
      <path d="M69.8664 56.582C69.8664 57.9284 69.6745 59.2308 69.3164 60.4632C62.3694 67.1184 51.2624 67.1331 44.3007 60.2866L41.9493 57.9763C41.9013 57.5164 41.8792 57.0529 41.8792 56.582C41.8792 48.8783 48.1433 42.6351 55.8728 42.6351C63.6023 42.6351 69.8664 48.8783 69.8664 56.582Z" fill="white"/>
      <path d="M54.5181 87.8345C50.395 87.7719 46.3752 87.4298 42.5289 86.8448L42.7946 87.1097H42.7983L42.9792 87.29C46.6446 87.6064 50.3765 87.7903 54.149 87.8345H54.1933C54.2671 87.8381 54.3409 87.8382 54.4148 87.8382H54.5476C54.5366 87.8345 54.5292 87.8345 54.5181 87.8345ZM57.3309 93.3529C57.4637 93.3529 57.5966 93.3529 57.7258 93.3492C58.8037 93.3381 59.8778 93.3124 60.9483 93.2793C60.952 93.2793 60.952 93.2793 60.9557 93.2793C60.9594 93.2793 60.9594 93.2793 60.9631 93.2793C60.9926 93.2719 61.0258 93.2609 61.0554 93.2535C61.1033 93.2425 61.155 93.2315 61.203 93.2167C59.9258 93.2903 58.6339 93.3345 57.3309 93.3529ZM55.8728 -8.09363C7.14798 -8.09363 -32.3524 14.6164 -32.3524 42.6351C-32.3524 55.1251 -24.501 66.5666 -11.4745 75.4034C-6.7386 78.6224 -1.31242 81.4957 4.66375 83.9495C6.05167 84.5161 7.46912 85.0642 8.9161 85.5866C10.6768 86.2231 12.4782 86.8264 14.3201 87.3893L15.3721 86.1789L16.1621 85.2703C16.4611 84.9244 16.7748 84.5933 17.096 84.2806C15.1359 83.1733 13.3161 81.9886 11.655 80.7268C13.9252 81.5288 16.2617 82.2682 18.65 82.9415H18.6537C19.1114 82.5957 19.5839 82.2756 20.0674 81.985H20.0711C20.8131 81.5361 21.5809 81.1535 22.3708 80.8371C18.6242 79.0198 15.3832 76.9154 12.7919 74.594C8.44731 70.7017 5.93724 66.206 5.93724 61.4676C5.93724 47.1713 28.8047 35.0897 55.8728 35.0897C82.9409 35.0897 105.808 47.1713 105.808 61.4676C105.808 65.4224 104.059 69.208 100.954 72.6184C98.9389 74.8295 96.355 76.8786 93.306 78.7144C94.0886 79.2258 94.8231 79.8328 95.4986 80.5281C95.7644 80.8004 96.0191 81.0873 96.2627 81.389L96.6577 81.8746C97.8168 81.5104 98.9611 81.1278 100.091 80.7268C99.2047 81.4 98.2745 82.0475 97.3037 82.6729L99.201 85.009L100.364 86.4475C101.194 86.1679 102.017 85.881 102.83 85.5866C105.078 84.7736 107.252 83.9054 109.356 82.982C114.442 80.7525 119.093 78.2104 123.22 75.4034C136.247 66.5666 144.098 55.1251 144.098 42.6351C144.098 14.6164 104.598 -8.09363 55.8728 -8.09363ZM97.8647 34.1331C86.5584 27.6325 71.6456 24.0529 55.8728 24.0529C40.1 24.0529 25.1872 27.6325 13.8809 34.1331C1.61845 41.1856 -5.13658 50.8943 -5.13658 61.4676C-5.13658 63.1525 -4.96679 64.8117 -4.62719 66.4452C-8.35168 62.0157 -10.4373 57.1375 -10.4373 52.0532C-10.4373 32.6505 19.9272 16.2572 55.8728 16.2572C91.8184 16.2572 122.183 32.6505 122.183 52.0532C122.183 57.1375 120.097 62.0157 116.373 66.4452C116.712 64.8117 116.882 63.1525 116.882 61.4676C116.882 50.8943 110.127 41.1856 97.8647 34.1331ZM109.444 18.0599C95.0446 9.77861 76.0198 5.22042 55.8728 5.22042C35.7258 5.22042 16.701 9.77861 2.30133 18.0599C-13.0544 26.8893 -21.5111 38.9599 -21.5111 52.0532C-21.5111 54.6616 -21.1752 57.2258 -20.5181 59.7348C-24.6487 54.3378 -26.8154 48.5472 -26.8154 42.6351C-26.8154 31.1385 -18.6208 20.098 -3.74497 11.5445C12.0906 2.43915 33.2637 -2.57523 55.8728 -2.57523C78.4819 -2.57523 99.655 2.43915 115.491 11.5445C130.366 20.098 138.561 31.1385 138.561 42.6351C138.561 48.5472 136.394 54.3378 132.264 59.7348C132.921 57.2258 133.257 54.6616 133.257 52.0532C133.257 38.9599 124.8 26.8893 109.444 18.0599ZM57.2275 87.8345C57.2164 87.8345 57.2091 87.8345 57.198 87.8382H57.3309C57.4047 87.8382 57.4785 87.8381 57.5523 87.8345H57.5966C62.1037 87.783 66.5517 87.5328 70.9037 87.0876L71.1252 86.8448H71.1289L71.4685 86.4733C66.9503 87.2863 62.1627 87.7609 57.2275 87.8345ZM53.0342 93.3234C53.0379 93.3234 53.0453 93.3234 53.049 93.3271C53.0601 93.3271 53.0674 93.3308 53.0748 93.3345H53.0785C53.0822 93.3345 53.0822 93.3345 53.0822 93.3345C53.396 93.3418 53.706 93.3455 54.0198 93.3492C54.149 93.3529 54.2819 93.3529 54.4148 93.3529C53.9533 93.3455 53.4919 93.3345 53.0342 93.3234Z" fill="white"/>
      <path d="M54.5181 87.8345C54.4812 87.8381 54.448 87.8381 54.4147 87.8381H54.5476C54.5366 87.8345 54.5292 87.8345 54.5181 87.8345ZM57.2275 87.8345C57.2164 87.8345 57.209 87.8345 57.198 87.8381H57.3308C57.2976 87.8381 57.2644 87.8381 57.2275 87.8345ZM57.2275 87.8345C57.2164 87.8345 57.209 87.8345 57.198 87.8381H57.3308C57.2976 87.8381 57.2644 87.8381 57.2275 87.8345ZM54.5181 87.8345C54.4812 87.8381 54.448 87.8381 54.4147 87.8381H54.5476C54.5366 87.8345 54.5292 87.8345 54.5181 87.8345ZM54.5181 87.8345C54.4812 87.8381 54.448 87.8381 54.4147 87.8381H54.5476C54.5366 87.8345 54.5292 87.8345 54.5181 87.8345ZM57.2275 87.8345C57.2164 87.8345 57.209 87.8345 57.198 87.8381H57.3308C57.2976 87.8381 57.2644 87.8381 57.2275 87.8345ZM57.3308 93.3529C57.4637 93.3529 57.5966 93.3529 57.7258 93.3492C58.8037 93.3381 59.8778 93.3124 60.9483 93.2793C60.952 93.2793 60.952 93.2793 60.9557 93.2793C60.9594 93.2793 60.9594 93.2793 60.9631 93.2793C60.9926 93.2719 61.0258 93.2609 61.0553 93.2535C61.1033 93.2425 61.155 93.2315 61.203 93.2167C59.9258 93.2903 58.6339 93.3345 57.3308 93.3529ZM121.024 1.98295C103.531 -8.07524 80.3939 -13.612 55.8728 -13.612C31.3517 -13.612 8.21106 -8.07524 -9.27821 1.98295C-27.7272 12.593 -37.8893 27.0291 -37.8893 42.6351C-37.8893 58.2411 -27.7272 72.6773 -9.27821 83.2873C-6.08156 85.1231 -2.69667 86.8117 0.850651 88.3385C3.90702 89.6592 7.08521 90.8585 10.3668 91.9401L11.5443 90.5863L13.3604 88.4967C11.7842 87.5696 10.3003 86.5983 8.91609 85.5866C10.6768 86.2231 12.4782 86.8264 14.3201 87.3893L15.3721 86.1789L16.1621 85.2702C16.461 84.9244 16.7748 84.5933 17.096 84.2806C15.1359 83.1733 13.3161 81.9886 11.655 80.7268C10.5845 80.3478 9.52884 79.9542 8.4879 79.5495C5.15099 78.2472 1.96542 76.7977 -1.05035 75.2084C-1.96579 74.7264 -2.86277 74.2335 -3.74499 73.7258C-5.14398 72.9201 -6.4876 72.096 -7.76479 71.2462C-13.0913 67.7217 -17.3732 63.8442 -20.5181 59.7348C-24.6487 54.3378 -26.8155 48.5472 -26.8155 42.6351C-26.8155 31.1385 -18.6208 20.098 -3.74499 11.5445C12.0906 2.43914 33.2637 -2.57524 55.8728 -2.57524C78.4819 -2.57524 99.655 2.43914 115.491 11.5445C130.366 20.098 138.561 31.1385 138.561 42.6351C138.561 48.5472 136.394 54.3378 132.264 59.7348C129.119 63.8442 124.837 67.7217 119.51 71.2462C118.233 72.096 116.89 72.9201 115.491 73.7258C114.608 74.2335 113.711 74.7264 112.796 75.2084C110.541 76.3967 108.189 77.5077 105.749 78.5341C103.911 79.3141 102.025 80.0425 100.091 80.7268C99.2047 81.4 98.2745 82.0475 97.3037 82.6729L99.201 85.009L100.364 86.4475C101.194 86.1679 102.017 85.881 102.83 85.5866C102.176 86.0649 101.504 86.5321 100.807 86.992L102.8 89.4495L104.073 91.0167C106.347 90.2074 108.566 89.3391 110.725 88.4121C114.335 86.8632 117.775 85.1525 121.024 83.2873C139.473 72.6773 149.635 58.2411 149.635 42.6351C149.635 27.0291 139.473 12.593 121.024 1.98295ZM57.2275 87.8345C57.2164 87.8345 57.209 87.8345 57.198 87.8381H57.3308C57.2976 87.8381 57.2644 87.8381 57.2275 87.8345ZM54.5181 87.8345C54.4812 87.8381 54.448 87.8381 54.4147 87.8381H54.5476C54.5366 87.8345 54.5292 87.8345 54.5181 87.8345ZM53.0342 93.3234C53.0379 93.3234 53.0453 93.3234 53.049 93.3271C53.06 93.3271 53.0674 93.3308 53.0748 93.3345H53.0785C53.0822 93.3345 53.0822 93.3345 53.0822 93.3345C53.396 93.3418 53.706 93.3455 54.0198 93.3492C54.149 93.3529 54.2819 93.3529 54.4147 93.3529C53.9533 93.3455 53.4919 93.3345 53.0342 93.3234ZM57.2275 87.8345C57.2164 87.8345 57.209 87.8345 57.198 87.8381H57.3308C57.2976 87.8381 57.2644 87.8381 57.2275 87.8345ZM54.5181 87.8345C54.4812 87.8381 54.448 87.8381 54.4147 87.8381H54.5476C54.5366 87.8345 54.5292 87.8345 54.5181 87.8345ZM54.5181 87.8345C54.4812 87.8381 54.448 87.8381 54.4147 87.8381H54.5476C54.5366 87.8345 54.5292 87.8345 54.5181 87.8345ZM57.2275 87.8345C57.2164 87.8345 57.209 87.8345 57.198 87.8381H57.3308C57.2976 87.8381 57.2644 87.8381 57.2275 87.8345ZM57.2275 87.8345C57.2164 87.8345 57.209 87.8345 57.198 87.8381H57.3308C57.2976 87.8381 57.2644 87.8381 57.2275 87.8345ZM54.5181 87.8345C54.4812 87.8381 54.448 87.8381 54.4147 87.8381H54.5476C54.5366 87.8345 54.5292 87.8345 54.5181 87.8345Z" fill="white"/>
    </g>
    <mask id="mask1_1_425" style="mask-type:luminance" maskUnits="userSpaceOnUse" x="0" y="0" width="111" height="110">
      <path d="M106.13 109.871H4.82986C2.39362 109.871 0.40033 107.885 0.40033 105.457V4.49934C0.40033 2.07125 2.39362 0.0846252 4.82986 0.0846252H106.126C108.562 0.0846252 110.555 2.07125 110.555 4.49934V105.457C110.559 107.885 108.566 109.871 106.13 109.871Z" fill="white"/>
    </mask>
    <g mask="url(#mask1_1_425)">
      <path d="M69.8665 56.5819C69.8665 57.9284 69.6745 59.2308 69.3165 60.4632C62.3695 67.1184 51.2624 67.1331 44.3007 60.2866L41.9493 57.9762C41.9014 57.5164 41.8792 57.0528 41.8792 56.5819C41.8792 48.8782 48.1433 42.6351 55.8728 42.6351C63.6024 42.6351 69.8665 48.8782 69.8665 56.5819Z" fill="white"/>
      <path d="M54.5181 87.8344C50.395 87.7719 46.3752 87.4298 42.5289 86.8448L42.7946 87.1097H42.7983L42.9792 87.29C43.8614 87.3672 44.7473 87.4371 45.6406 87.496C46.1057 87.5291 46.5745 87.5585 47.047 87.5843C47.5158 87.6137 47.992 87.6395 48.4644 87.6615C48.9332 87.6836 49.402 87.7057 49.8745 87.7241C50.2141 87.7388 50.5574 87.7498 50.9007 87.7609C51.4138 87.7793 51.9305 87.794 52.4473 87.805C53.0121 87.8197 53.5805 87.8271 54.149 87.8344H54.1933C54.2671 87.8381 54.341 87.8381 54.4148 87.8381H54.5477C54.5366 87.8345 54.5292 87.8344 54.5181 87.8344ZM57.2275 87.8344C57.2165 87.8344 57.2091 87.8345 57.198 87.8381H57.3309C57.4047 87.8381 57.4785 87.8381 57.5524 87.8344H57.5966C57.9842 87.8308 58.3718 87.8234 58.7594 87.8161C59.003 87.8124 59.2467 87.8087 59.4903 87.8013C59.7671 87.794 60.044 87.7866 60.3208 87.7793C60.5644 87.7719 60.8044 87.7645 61.048 87.7535C61.3248 87.7462 61.598 87.7351 61.8712 87.7241C64.4477 87.6248 66.9983 87.4555 69.5158 87.2201C69.9809 87.1796 70.4423 87.1355 70.9037 87.0876L71.1252 86.8448H71.1289L71.4685 86.4732C66.9503 87.2863 62.1628 87.7609 57.2275 87.8344ZM55.8728 10.7388C16.1916 10.7388 -15.9742 29.2365 -15.9742 52.0532C-15.9742 58.9806 -13.0101 65.5107 -7.76476 71.2462C-5.04059 74.2298 -1.6963 76.9963 2.16478 79.4943C3.50471 80.3589 4.9037 81.194 6.36545 81.9923C9.16343 83.5227 12.1755 84.9244 15.3722 86.1789L16.1621 85.2702C16.4611 84.9244 16.7748 84.5933 17.096 84.2806C16.749 84.0819 16.4057 83.8833 16.0661 83.6809C15.7339 83.486 15.4054 83.2873 15.0842 83.085C14.0913 82.4632 13.1426 81.8231 12.2383 81.1609C12.0426 81.0174 11.847 80.8739 11.655 80.7268C12.05 80.8666 12.4487 81.0027 12.8473 81.1388C13.0873 81.2197 13.3272 81.3007 13.5671 81.3816C14.0544 81.5435 14.549 81.7054 15.0436 81.8599C15.1175 81.8856 15.1913 81.9077 15.2614 81.9298C15.6232 82.0438 15.9812 82.1542 16.343 82.2645C17.1034 82.4963 17.8748 82.7207 18.65 82.9415H18.6537C19.1114 82.5957 19.5839 82.2756 20.0675 81.985H20.0712C20.8131 81.5361 21.5809 81.1535 22.3708 80.8371C18.6242 79.0197 15.3832 76.9154 12.792 74.594C8.44733 70.7017 5.93726 66.206 5.93726 61.4676C5.93726 47.1712 28.8047 35.0896 55.8728 35.0896C82.9409 35.0896 105.808 47.1712 105.808 61.4676C105.808 65.4224 104.059 69.208 100.954 72.6184C98.9389 74.8294 96.355 76.8786 93.3061 78.7144C94.0886 79.2258 94.8232 79.8328 95.4987 80.5281C95.7644 80.8003 96.0191 81.0873 96.2628 81.389L96.6577 81.8746C96.9014 81.7973 97.1413 81.7201 97.3812 81.6428C97.6101 81.5692 97.8389 81.492 98.0641 81.4184C98.747 81.194 99.4188 80.9622 100.091 80.7268C99.6477 81.0615 99.1936 81.3926 98.7285 81.7164C98.2634 82.0438 97.7909 82.3639 97.3037 82.6729L99.201 85.009C102.173 83.7177 104.963 82.294 107.547 80.7525C108.241 80.3442 108.92 79.9211 109.581 79.4943C113.442 76.9963 116.786 74.2298 119.51 71.2462C124.756 65.5107 127.72 58.9806 127.72 52.0532C127.72 29.2365 95.554 10.7388 55.8728 10.7388ZM116.373 66.4452C116.712 64.8117 116.882 63.1525 116.882 61.4676C116.882 50.8943 110.127 41.1856 97.8648 34.1331C86.5584 27.6324 71.6456 24.0528 55.8728 24.0528C40.1 24.0528 25.1873 27.6324 13.8809 34.1331C1.61847 41.1856 -5.13657 50.8943 -5.13657 61.4676C-5.13657 63.1525 -4.96677 64.8117 -4.62717 66.4452C-8.35167 62.0157 -10.4372 57.1375 -10.4372 52.0532C-10.4372 32.6505 19.9272 16.2572 55.8728 16.2572C91.8185 16.2572 122.183 32.6505 122.183 52.0532C122.183 57.1375 120.097 62.0157 116.373 66.4452ZM58.7336 93.3197C58.2685 93.3344 57.7997 93.3455 57.3309 93.3528C57.4638 93.3528 57.5967 93.3528 57.7258 93.3492C57.9215 93.3455 58.1171 93.3418 58.3091 93.3345C59.2282 93.3234 60.1436 93.294 61.0554 93.2535C61.1034 93.2425 61.155 93.2314 61.203 93.2167C60.3873 93.2646 59.5604 93.2977 58.7336 93.3197ZM53.0269 93.3197C53.0342 93.3234 53.0416 93.3234 53.049 93.3271C53.3701 93.3381 53.695 93.3455 54.0198 93.3492C54.149 93.3528 54.2819 93.3528 54.4148 93.3528C53.9497 93.3455 53.4883 93.3344 53.0269 93.3197Z" fill="white"/>
      <path d="M53.0268 93.3197C53.0342 93.3234 53.0416 93.3234 53.049 93.3271C53.0601 93.3271 53.0711 93.3308 53.0785 93.3344C53.0822 93.3344 53.0822 93.3344 53.0822 93.3344C53.396 93.3418 53.706 93.3455 54.0198 93.3492C54.149 93.3528 54.2819 93.3528 54.4148 93.3528C53.9497 93.3455 53.4883 93.3344 53.0268 93.3197ZM57.5966 87.8344C57.9842 87.8308 58.3718 87.8234 58.7594 87.8161C59.003 87.8124 59.2466 87.8087 59.4903 87.8013C59.7671 87.794 60.044 87.7866 60.3208 87.7793C60.5644 87.7719 60.8044 87.7645 61.048 87.7535C61.3248 87.7461 61.598 87.7351 61.8711 87.7241C64.4477 87.6247 66.9983 87.4555 69.5158 87.2201C69.9809 87.1796 70.4423 87.1355 70.9037 87.0876L71.1252 86.8448C66.751 87.4261 62.2255 87.7682 57.5966 87.8344ZM58.7336 93.3197C58.5896 93.3271 58.453 93.3308 58.3091 93.3344C57.9842 93.3418 57.6557 93.3492 57.3309 93.3528C57.4638 93.3528 57.5966 93.3528 57.7258 93.3492C58.8037 93.3381 59.8779 93.3124 60.9483 93.2793C60.952 93.2793 60.952 93.2793 60.9557 93.2793C60.9889 93.2719 61.0221 93.2609 61.0554 93.2535C61.1034 93.2425 61.155 93.2314 61.203 93.2167C60.3873 93.2645 59.5604 93.2977 58.7336 93.3197ZM109.444 18.0599C95.0446 9.77859 76.0198 5.2204 55.8728 5.2204C35.7258 5.2204 16.701 9.77859 2.30134 18.0599C-13.0544 26.8893 -21.5111 38.9599 -21.5111 52.0532C-21.5111 54.6615 -21.1752 57.2257 -20.5181 59.7348C-19.0527 65.3084 -15.9963 70.595 -11.4745 75.4033C-7.82014 79.2993 -3.20235 82.8789 2.30134 86.0428C2.42315 86.1127 2.54496 86.1826 2.66678 86.2488C5.46476 87.8381 8.43255 89.2876 11.5443 90.5863L13.3604 88.4967C11.7842 87.5696 10.3003 86.5983 8.91611 85.5866C9.47349 85.789 10.0346 85.9876 10.5993 86.1789C10.9685 86.3077 11.3413 86.4328 11.7178 86.5579C12.1238 86.694 12.5336 86.8264 12.947 86.9589C13.401 87.106 13.8587 87.2495 14.3201 87.3893L15.3721 86.1789L16.1621 85.2702C16.4611 84.9244 16.7748 84.5933 17.096 84.2806C16.749 84.0819 16.4057 83.8833 16.0661 83.6809C15.7339 83.4823 15.4091 83.2836 15.0842 83.0849C14.0913 82.4632 13.1426 81.8231 12.2383 81.1609C12.0426 81.0174 11.847 80.8739 11.655 80.7268C12.05 80.8665 12.4487 81.0027 12.8473 81.1388C13.0872 81.2197 13.3272 81.3007 13.5671 81.3816C14.0544 81.5435 14.549 81.7054 15.0436 81.8599C15.1174 81.8856 15.1913 81.9077 15.2614 81.9298C15.6232 82.0438 15.9812 82.1542 16.343 82.2645C17.1034 82.4963 17.8748 82.7207 18.65 82.9415H18.6537C19.1114 82.5956 19.5839 82.2756 20.0674 81.9849C16.5054 80.7231 13.1685 79.2773 10.1084 77.6843C8.61342 76.9043 7.1849 76.0913 5.82651 75.2415C1.6 72.6037 -1.93994 69.6421 -4.62718 66.4451C-8.35168 62.0157 -10.4373 57.1375 -10.4373 52.0532C-10.4373 32.6505 19.9272 16.2572 55.8728 16.2572C91.8185 16.2572 122.183 32.6505 122.183 52.0532C122.183 57.1375 120.097 62.0157 116.373 66.4451C113.686 69.6421 110.146 72.6037 105.919 75.2415C105.295 75.6314 104.66 76.014 104.007 76.3856C101.39 77.8903 98.544 79.2773 95.4987 80.5281C95.7644 80.8003 96.0191 81.0873 96.2628 81.389L96.6577 81.8746C96.9013 81.7973 97.1413 81.7201 97.3812 81.6428C97.6101 81.5692 97.8389 81.492 98.0641 81.4184C98.747 81.194 99.4188 80.9622 100.091 80.7268C99.6477 81.0615 99.1936 81.3926 98.7285 81.7164C98.2634 82.0438 97.7873 82.3602 97.3037 82.6729L99.201 85.009L100.364 86.4475C100.773 86.3077 101.187 86.1679 101.593 86.0244C102.006 85.8809 102.42 85.7338 102.83 85.5866C102.176 86.0649 101.504 86.5321 100.807 86.992L102.8 89.4495C105.107 88.3973 107.326 87.2605 109.444 86.0428C109.876 85.7926 110.304 85.5425 110.725 85.285C115.668 82.3124 119.854 78.994 123.22 75.4033C127.742 70.595 130.798 65.3084 132.264 59.7348C132.921 57.2257 133.257 54.6615 133.257 52.0532C133.257 38.9599 124.8 26.8893 109.444 18.0599ZM42.7983 87.1097L42.9792 87.29C43.8614 87.3672 44.7473 87.4371 45.6406 87.496C46.1057 87.5291 46.5745 87.5585 47.047 87.5843C47.5158 87.6137 47.992 87.6395 48.4644 87.6615C48.9332 87.6836 49.402 87.7057 49.8745 87.7241C50.2141 87.7388 50.5574 87.7498 50.9007 87.7609C51.4138 87.7793 51.9305 87.794 52.4473 87.805C53.0121 87.8197 53.5805 87.8271 54.149 87.8344C50.2842 87.7793 46.4896 87.5328 42.7983 87.1097Z" fill="white"/>
    </g>
    <mask id="mask2_1_425" style="mask-type:luminance" maskUnits="userSpaceOnUse" x="0" y="0" width="111" height="110">
      <path d="M106.13 109.871H4.82986C2.39362 109.871 0.40033 107.885 0.40033 105.457V4.49934C0.40033 2.07125 2.39362 0.0846252 4.82986 0.0846252H106.126C108.562 0.0846252 110.555 2.07125 110.555 4.49934V105.457C110.559 107.885 108.566 109.871 106.13 109.871Z" fill="white"/>
    </mask>
    <g mask="url(#mask2_1_425)">
      <path d="M69.8664 56.582C69.8664 57.9284 69.6745 59.2308 69.3164 60.4632C62.3694 67.1184 51.2624 67.1331 44.3007 60.2866L41.9493 57.9763C41.9013 57.5164 41.8792 57.0529 41.8792 56.582C41.8792 48.8783 48.1433 42.6351 55.8728 42.6351C63.6023 42.6351 69.8664 48.8783 69.8664 56.582Z" fill="white"/>
      <path d="M54.5181 87.8345C50.395 87.7719 46.3752 87.4298 42.5289 86.8448L42.7946 87.1097H42.7983L42.9792 87.29C43.8614 87.3672 44.7473 87.4371 45.6406 87.496C46.1057 87.5291 46.5745 87.5586 47.047 87.5843C47.5158 87.6137 47.9919 87.6395 48.4644 87.6616C48.9332 87.6836 49.402 87.7057 49.8745 87.7241C50.2141 87.7388 50.5574 87.7498 50.9007 87.7609C51.4138 87.7793 51.9305 87.794 52.4473 87.805C53.0121 87.8198 53.5805 87.8271 54.149 87.8345H54.1933C54.2671 87.8381 54.3409 87.8382 54.4148 87.8382H54.5476C54.5366 87.8345 54.5292 87.8345 54.5181 87.8345ZM57.2275 87.8345C57.2164 87.8345 57.2091 87.8345 57.198 87.8382H57.3309C57.4047 87.8382 57.4785 87.8381 57.5523 87.8345H57.5966C57.9842 87.8308 58.3718 87.8234 58.7594 87.8161C59.003 87.8124 59.2466 87.8087 59.4903 87.8014C59.7671 87.794 60.044 87.7866 60.3208 87.7793C60.5644 87.7719 60.8044 87.7646 61.048 87.7535C61.3248 87.7462 61.598 87.7351 61.8711 87.7241C64.4476 87.6248 66.9983 87.4555 69.5158 87.2201C69.9809 87.1796 70.4423 87.1355 70.9037 87.0876L71.1252 86.8448H71.1289L71.4685 86.4733C66.9503 87.2863 62.1627 87.7609 57.2275 87.8345ZM55.8728 29.5713C25.2352 29.5713 0.40033 43.8529 0.40033 61.4676C0.40033 66.401 2.34932 71.0733 5.8265 75.2415C6.82684 76.4445 7.96006 77.607 9.20771 78.7181C9.97919 79.406 10.7987 80.0756 11.655 80.7268C12.05 80.8666 12.4487 81.0027 12.8473 81.1388C13.0872 81.2197 13.3272 81.3007 13.5671 81.3816C14.0544 81.5435 14.549 81.7054 15.0436 81.8599C15.1174 81.8856 15.1913 81.9077 15.2614 81.9298C15.6231 82.0438 15.9812 82.1542 16.3429 82.2646C17.1033 82.4963 17.8748 82.7208 18.65 82.9415H18.6537C19.1114 82.5957 19.5839 82.2756 20.0674 81.985H20.0711C20.8131 81.5361 21.5809 81.1535 22.3708 80.8371C18.6242 79.0198 15.3832 76.9154 12.7919 74.594C8.44731 70.7017 5.93724 66.206 5.93724 61.4676C5.93724 47.1713 28.8047 35.0897 55.8728 35.0897C82.9409 35.0897 105.808 47.1713 105.808 61.4676C105.808 65.4224 104.059 69.208 100.954 72.6184C98.9389 74.8295 96.355 76.8786 93.306 78.7144C94.0886 79.2258 94.8231 79.8328 95.4986 80.5281C95.7644 80.8004 96.0191 81.0873 96.2627 81.389L96.6577 81.8746C96.9013 81.7973 97.1413 81.7201 97.3812 81.6428C97.6101 81.5693 97.8389 81.492 98.0641 81.4184C98.747 81.194 99.4188 80.9622 100.091 80.7268C101.689 79.5164 103.14 78.2398 104.428 76.9044C104.952 76.3599 105.45 75.8081 105.919 75.2415C109.396 71.0733 111.345 66.401 111.345 61.4676C111.345 43.8529 86.5104 29.5713 55.8728 29.5713Z" fill="white"/>
      <path d="M54.5181 87.8345C50.3949 87.7719 46.3751 87.4298 42.5288 86.8448L42.7946 87.1097H42.7983L42.9792 87.29C43.8614 87.3672 44.7473 87.4371 45.6406 87.496C46.1057 87.5291 46.5745 87.5585 47.047 87.5843C47.5158 87.6137 47.9919 87.6395 48.4644 87.6615C48.9332 87.6836 49.402 87.7057 49.8745 87.7241C50.2141 87.7388 50.5574 87.7498 50.9007 87.7609C51.4137 87.7793 51.9305 87.794 52.4473 87.805C53.0121 87.8197 53.5805 87.8271 54.149 87.8345H54.1933C54.2671 87.8381 54.3409 87.8381 54.4147 87.8381H54.5476C54.5366 87.8345 54.5292 87.8345 54.5181 87.8345ZM53.0268 93.3197C53.0342 93.3234 53.0416 93.3234 53.049 93.3271C53.06 93.3271 53.0711 93.3308 53.0785 93.3345C53.0822 93.3345 53.0822 93.3345 53.0822 93.3345C53.396 93.3418 53.706 93.3455 54.0198 93.3492C54.149 93.3528 54.2819 93.3529 54.4147 93.3529C53.9496 93.3455 53.4882 93.3345 53.0268 93.3197ZM57.2275 87.8345C57.2164 87.8345 57.209 87.8345 57.198 87.8381H57.3308C57.4047 87.8381 57.4785 87.8381 57.5523 87.8345H57.5966C57.9842 87.8308 58.3718 87.8234 58.7594 87.8161C59.003 87.8124 59.2466 87.8087 59.4902 87.8013C59.7671 87.794 60.0439 87.7866 60.3208 87.7793C60.5644 87.7719 60.8043 87.7646 61.048 87.7535C61.3248 87.7462 61.598 87.7351 61.8711 87.7241C64.4476 87.6248 66.9983 87.4555 69.5157 87.2201C69.9809 87.1796 70.4423 87.1355 70.9037 87.0876L71.1251 86.8448H71.1288L71.4684 86.4732C66.9503 87.2863 62.1627 87.7609 57.2275 87.8345ZM58.7335 93.3197C58.2684 93.3345 57.7996 93.3455 57.3308 93.3529C57.4637 93.3529 57.5966 93.3528 57.7258 93.3492C58.8037 93.3381 59.8778 93.3124 60.9483 93.2793C60.952 93.2793 60.952 93.2793 60.9557 93.2793C60.9889 93.2719 61.0221 93.2609 61.0553 93.2535C61.1033 93.2425 61.155 93.2314 61.203 93.2167C60.3872 93.2646 59.5604 93.2977 58.7335 93.3197ZM97.8647 34.1331C86.5584 27.6325 71.6456 24.0529 55.8728 24.0529C40.1 24.0529 25.1872 27.6325 13.8809 34.1331C1.61843 41.1856 -5.1366 50.8943 -5.1366 61.4676C-5.1366 63.1525 -4.9668 64.8117 -4.6272 66.4452C-3.99968 69.484 -2.79633 72.4197 -1.05036 75.2084C-0.127536 76.6799 0.942933 78.111 2.16474 79.4943C3.1983 80.6642 4.33521 81.8047 5.57548 82.901C6.61642 83.8244 7.73119 84.7184 8.91609 85.5866C9.47347 85.789 10.0345 85.9876 10.5993 86.1789C10.9684 86.3077 11.3413 86.4328 11.7178 86.5579C12.1238 86.694 12.5335 86.8264 12.947 86.9589C13.401 87.106 13.8587 87.2495 14.3201 87.3893L15.3721 86.1789L16.1621 85.2702C16.4611 84.9244 16.7748 84.5933 17.096 84.2806C16.749 84.0819 16.4057 83.8833 16.0661 83.6809C15.7339 83.486 15.4053 83.2873 15.0842 83.085C14.0913 82.4632 13.1426 81.8231 12.2382 81.1609C12.0426 81.0174 11.847 80.8739 11.655 80.7268C12.05 80.8666 12.4486 81.0027 12.8473 81.1388C13.0872 81.2197 13.3272 81.3007 13.5671 81.3816C14.0543 81.5435 14.549 81.7054 15.0436 81.8599C15.1174 81.8856 15.1913 81.9077 15.2614 81.9298C15.6231 82.0438 15.9812 82.1542 16.3429 82.2645C17.1033 82.4963 17.8748 82.7207 18.65 82.9415H18.6537C19.1114 82.5957 19.5839 82.2756 20.0674 81.985H20.0711C20.8131 81.5361 21.5809 81.1535 22.3708 80.8371C18.6241 79.0197 15.3832 76.9154 12.7919 74.594C8.4473 70.7017 5.93723 66.206 5.93723 61.4676C5.93723 47.1713 28.8047 35.0896 55.8728 35.0896C82.9409 35.0896 105.808 47.1713 105.808 61.4676C105.808 65.4224 104.059 69.208 100.954 72.6184C98.9389 74.8294 96.355 76.8786 93.306 78.7144C94.0886 79.2258 94.8231 79.8328 95.4986 80.5281C95.7644 80.8003 96.0191 81.0873 96.2627 81.389L96.6577 81.8746C96.9013 81.7973 97.1413 81.7201 97.3812 81.6428C97.61 81.5692 97.8389 81.492 98.0641 81.4184C98.747 81.194 99.4188 80.9622 100.091 80.7268C99.6476 81.0615 99.1936 81.3926 98.7285 81.7164C98.2634 82.0438 97.7909 82.3639 97.3037 82.6729L99.201 85.009L100.364 86.4475C100.773 86.3077 101.187 86.1679 101.593 86.0244C102.006 85.8809 102.42 85.7338 102.83 85.5866C104.716 84.207 106.421 82.7539 107.942 81.2345C108.518 80.6642 109.06 80.083 109.581 79.4943C110.803 78.111 111.873 76.6799 112.796 75.2084C114.542 72.4197 115.745 69.484 116.373 66.4452C116.712 64.8117 116.882 63.1525 116.882 61.4676C116.882 50.8943 110.127 41.1856 97.8647 34.1331Z" fill="white"/>
    </g>
    <mask id="mask3_1_425" style="mask-type:luminance" maskUnits="userSpaceOnUse" x="0" y="0" width="111" height="110">
      <path d="M106.13 109.871H4.82986C2.39362 109.871 0.40033 107.885 0.40033 105.457V4.49934C0.40033 2.07125 2.39362 0.0846252 4.82986 0.0846252H106.126C108.562 0.0846252 110.555 2.07125 110.555 4.49934V105.457C110.559 107.885 108.566 109.871 106.13 109.871Z" fill="white"/>
    </mask>
    <g mask="url(#mask3_1_425)">
      <path d="M69.8664 56.582C69.8664 57.9284 69.6745 59.2308 69.3164 60.4632C62.3694 67.1184 51.2624 67.1331 44.3007 60.2866L41.9493 57.9763C41.9013 57.5164 41.8792 57.0529 41.8792 56.582C41.8792 48.8783 48.1433 42.6351 55.8728 42.6351C63.6023 42.6351 69.8664 48.8783 69.8664 56.582Z" fill="white"/>
    </g>
    <mask id="mask4_1_425" style="mask-type:luminance" maskUnits="userSpaceOnUse" x="0" y="0" width="111" height="110">
      <path d="M106.13 109.871H4.82986C2.39362 109.871 0.40033 107.885 0.40033 105.457V4.49934C0.40033 2.07125 2.39362 0.0846252 4.82986 0.0846252H106.126C108.562 0.0846252 110.555 2.07125 110.555 4.49934V105.457C110.559 107.885 108.566 109.871 106.13 109.871Z" fill="white"/>
    </mask>
    <g mask="url(#mask4_1_425)">
      <path d="M110.725 84.6706V99.2244L96.2628 81.389C91.2795 75.2489 81.9812 74.9729 76.6436 80.8114L70.1581 87.9044C63.296 95.4057 51.5503 95.7184 44.3007 88.5887L39.9745 84.3358C33.2564 77.7321 22.3376 78.1589 16.1621 85.2703L-1.2312 105.287V90.7335L16.1621 70.7164C22.3376 63.605 33.2564 63.1783 39.9745 69.782L44.3007 74.0348C51.5503 81.1646 63.296 80.8519 70.1581 73.3505L76.6436 66.2576C81.9812 60.4191 91.2795 60.695 96.2628 66.8351L110.725 84.6706Z" fill="white"/>
    </g>
    <mask id="mask5_1_425" style="mask-type:luminance" maskUnits="userSpaceOnUse" x="0" y="0" width="111" height="110">
      <path d="M106.13 109.871H4.82986C2.39362 109.871 0.40033 107.885 0.40033 105.457V4.49934C0.40033 2.07125 2.39362 0.0846252 4.82986 0.0846252H106.126C108.562 0.0846252 110.555 2.07125 110.555 4.49934V105.457C110.559 107.885 108.566 109.871 106.13 109.871Z" fill="white"/>
    </mask>
    <g mask="url(#mask5_1_425)">
      <path d="M96.2628 95.5418L110.725 113.374V127.523H-1.2312V119.44L16.1621 99.4194C22.3376 92.308 33.2564 91.8813 39.9745 98.485L44.3007 102.738C51.5503 109.868 63.296 109.555 70.1581 102.054L76.6436 94.9605C81.9812 89.1221 91.2795 89.398 96.2628 95.5418Z" fill="white"/>
    </g>
    <mask id="mask6_1_425" style="mask-type:luminance" maskUnits="userSpaceOnUse" x="0" y="0" width="111" height="110">
      <path d="M106.13 109.871H4.82986C2.39362 109.871 0.40033 107.885 0.40033 105.457V4.49934C0.40033 2.07125 2.39362 0.0846252 4.82986 0.0846252H106.126C108.562 0.0846252 110.555 2.07125 110.555 4.49934V105.457C110.559 107.885 108.566 109.871 106.13 109.871Z" fill="white"/>
    </mask>
    <g mask="url(#mask6_1_425)">
      <path d="M110.725 84.6706V99.2244L104.074 91.0167L102.8 89.4495L100.807 86.992L100.364 86.4475L99.201 85.0091L97.3037 82.6729L96.6577 81.8746L96.2628 81.389C96.0191 81.0873 95.7644 80.8004 95.4987 80.5281C94.8232 79.8328 94.0886 79.2258 93.3061 78.7144C88.1567 75.3372 81.051 75.992 76.6436 80.8114L71.4722 86.4696L71.4685 86.4733L71.1289 86.8448H71.1252L70.9037 87.0877L70.1581 87.9044C67.6738 90.6194 64.5399 92.3963 61.2178 93.2131C61.2141 93.2167 61.2141 93.2168 61.2104 93.2168C61.2104 93.2168 61.2067 93.2168 61.203 93.2168C61.155 93.2315 61.1034 93.2425 61.0554 93.2535C61.0258 93.2609 60.9926 93.2719 60.9631 93.2793C60.9594 93.2793 60.9594 93.2793 60.9557 93.2793C60.952 93.2793 60.952 93.2793 60.9483 93.2793C58.3681 93.8716 55.6772 93.8937 53.0822 93.3345C53.0822 93.3345 53.0822 93.3345 53.0785 93.3345H53.0748C53.0675 93.3308 53.0601 93.3271 53.049 93.3271C53.0453 93.3234 53.0379 93.3234 53.0342 93.3234C53.0306 93.3234 53.0305 93.3198 53.0269 93.3198H53.0158C49.8339 92.6208 46.7997 91.0462 44.3007 88.5887L42.9792 87.29L42.7983 87.1097H42.7946L42.5289 86.8448L39.9745 84.3358C35.1648 79.6084 28.2067 78.4826 22.3745 80.8372H22.3708C21.5809 81.1535 20.8131 81.5361 20.0712 81.985H20.0675C19.5839 82.2756 19.1114 82.5957 18.6537 82.9415H18.65C18.1111 83.3499 17.5906 83.7987 17.096 84.2806C16.7748 84.5933 16.4611 84.9244 16.1621 85.2703L15.3722 86.179L14.3201 87.3893L13.3604 88.4967L11.5443 90.5863L10.3668 91.9402L-1.2312 105.287V90.7335L0.850678 88.3385L2.66679 86.2489L4.66377 83.9495L5.57551 82.901L6.36544 81.9923L8.48793 79.5495L9.20773 78.7181L10.1084 77.6843L12.792 74.594L16.1621 70.7164C22.3376 63.605 33.2564 63.1783 39.9745 69.782L44.3007 74.0348C51.5503 81.1646 63.296 80.8519 70.1581 73.3505L76.6436 66.2576C81.9812 60.4191 91.2795 60.695 96.2628 66.8351L100.954 72.6184L104.007 76.3856L104.428 76.9044L105.749 78.5341L107.547 80.7525L107.942 81.2345L109.356 82.982L110.725 84.6706Z" fill="white"/>
    </g>
    <mask id="mask7_1_425" style="mask-type:luminance" maskUnits="userSpaceOnUse" x="0" y="0" width="111" height="110">
      <path d="M106.13 109.871H4.82986C2.39362 109.871 0.40033 107.885 0.40033 105.457V4.49934C0.40033 2.07125 2.39362 0.0846252 4.82986 0.0846252H106.126C108.562 0.0846252 110.555 2.07125 110.555 4.49934V105.457C110.559 107.885 108.566 109.871 106.13 109.871Z" fill="white"/>
    </mask>
    <g mask="url(#mask7_1_425)">
      <path d="M96.2628 95.5418L110.725 113.374V141.271H-1.2312V119.44L16.1621 99.4194C22.3376 92.308 33.2564 91.8813 39.9745 98.485L44.3007 102.738C51.5503 109.868 63.296 109.555 70.1581 102.054L76.6436 94.9605C81.9812 89.1221 91.2795 89.398 96.2628 95.5418Z" fill="#162556"/>
    </g>
    <mask id="mask8_1_425" style="mask-type:luminance" maskUnits="userSpaceOnUse" x="0" y="0" width="111" height="110">
      <path d="M106.13 109.871H4.82986C2.39362 109.871 0.40033 107.885 0.40033 105.457V4.49934C0.40033 2.07125 2.39362 0.0846252 4.82986 0.0846252H106.126C108.562 0.0846252 110.555 2.07125 110.555 4.49934V105.457C110.559 107.885 108.566 109.871 106.13 109.871Z" fill="white"/>
    </mask>
    <g mask="url(#mask8_1_425)">
      <path d="M110.725 113.374V155.825H-1.2312V119.44L16.1621 99.4194C22.3376 92.308 33.2564 91.8813 39.9745 98.485L44.3007 102.738C51.5503 109.868 63.296 109.555 70.1581 102.054L76.6436 94.9605C81.9812 89.1221 91.2795 89.398 96.2628 95.5418L110.725 113.374Z" fill="white"/>
    </g>
    <mask id="mask9_1_425" style="mask-type:luminance" maskUnits="userSpaceOnUse" x="0" y="0" width="111" height="110">
      <path d="M106.13 109.871H4.82986C2.39362 109.871 0.40033 107.885 0.40033 105.457V4.49934C0.40033 2.07125 2.39362 0.0846252 4.82986 0.0846252H106.126C108.562 0.0846252 110.555 2.07125 110.555 4.49934V105.457C110.559 107.885 108.566 109.871 106.13 109.871Z" fill="white"/>
    </mask>
    <g mask="url(#mask9_1_425)">
      <path d="M110.725 113.374V169.974H-1.2312V119.44L16.1621 99.4194C22.3376 92.308 33.2564 91.8813 39.9745 98.485L44.3007 102.738C51.5503 109.868 63.296 109.555 70.1581 102.054L76.6436 94.9605C81.9812 89.1221 91.2795 89.398 96.2628 95.5418L110.725 113.374Z" fill="white"/>
    </g>
  </g>
  <defs>
    <clipPath id="clip0_1_425">
      <rect width="110" height="110" fill="white" transform="translate(0.5)"/>
    </clipPath>
  </defs>
</svg>